# xmcd
#
# Track frame offsets:
#	150
#	13718
#	32347
#	48192
#	61913
#	76459
#	93121
#	109683
#	125061
#	142728
#	158298
#	173259
#
# Disc length: 2548 seconds
#
# Revision: 0
# Processed by: cddbd v1.5.1PL2 Copyright (c) Steve Scherf et al.
# Submitted via: EasyCDDAExtractor 4.6.9.1
#
DISCID=7b09f20c
DTITLE=Toby Keith - White Trash With Money
DYEAR=2006
DGENRE=Country
TTITLE0=Get Drunk And Be Somebody
TTITLE1=A Little Too Late
TTITLE2=Can't Buy You Money
TTITLE3=Crash Here Tonight
TTITLE4=Grain Of Salt
TTITLE5=I Ain't Already There
TTITLE6=Note To Self
TTITLE7=Too Far This Time
TTITLE8=Ain't No Right Way
TTITLE9=Brand New Bow (Bus Songs Session #2)
TTITLE10=Hell No (Bus Songs Session #2)
TTITLE11=Runnin' Block (Bus Songs Session #2)
EXTD=
EXTT0=
EXTT1=
EXTT2=
EXTT3=
EXTT4=
EXTT5=
EXTT6=
EXTT7=
EXTT8=
EXTT9=
EXTT10=
EXTT11=
PLAYORDER=
